<svg width="81" height="70" viewBox="0 0 81 70" fill="none" xmlns="http://www.w3.org/2000/svg">
<path d="M63.7723 0H17.0733C8.07888 0 0.761353 6.8265 0.761353 15.2174C0.761353 23.6077 8.07826 30.4339 17.0718 30.4348H17.0726H17.0732H63.7722C72.7666 30.4348 80.084 23.6083 80.084 15.2174C80.084 6.8265 72.7668 0 63.7723 0Z" fill="#3DE9F2"/>
<path d="M80.0843 15.2177C80.0843 23.6077 72.767 30.4354 63.772 30.4354H34.7603V0H63.772C72.767 0 80.0843 6.82621 80.0843 15.2177Z" fill="#00CEF2"/>
<path d="M63.7723 26.0987H17.0734C10.6417 26.0987 5.40918 21.2173 5.40918 15.2174C5.40918 9.21748 10.6417 4.33594 17.0734 4.33594H63.7723C70.2038 4.33594 75.4363 9.21734 75.4363 15.2174C75.4363 21.2175 70.2038 26.0987 63.7723 26.0987V26.0987Z" fill="#70FFFF"/>
<path d="M75.4364 15.2177C75.4364 21.2172 70.2045 26.0995 63.772 26.0995H34.7603V4.33594H63.772C70.2045 4.33594 75.4364 9.21676 75.4364 15.2177Z" fill="#3DE9F2"/>
<path d="M61.4856 43.0429V59.6914L60.8061 60.4141H30.0113L28.9508 59.69L18.0021 51.1207C16.7983 50.1769 16.05 48.7966 15.9509 47.334C15.8502 45.8699 16.4048 44.413 17.4723 43.3348C19.5684 41.2174 23.0636 41.0107 25.4293 42.8636L28.9508 45.6198V18.5723C28.9508 15.5834 31.5567 13.1523 34.7606 13.1523C37.9645 13.1523 40.5704 15.5834 40.5704 18.5723V35.0589L55.2807 36.578C58.8177 36.9436 61.4856 39.723 61.4856 43.0429V43.0429Z" fill="#FDDBCC"/>
<path d="M61.4852 43.0429V59.6914L60.8051 60.4141H34.7603V13.1523C37.9642 13.1523 40.57 15.5834 40.57 18.5723V35.0589L55.2804 36.578C58.8174 36.9436 61.4852 39.723 61.4852 43.0429Z" fill="#FBCDBE"/>
<path d="M61.4852 59.6914V67.3516C61.4852 68.5483 60.4441 69.5195 59.1613 69.5195H31.2743C29.9916 69.5195 28.9504 68.5483 28.9504 67.3516V59.6914H61.4852Z" fill="#00347B"/>
<path d="M61.4852 59.6914V67.3516C61.4852 68.5483 60.4441 69.5195 59.1613 69.5195H34.7603V59.6914H61.4852Z" fill="#002860"/>
<path d="M65.2899 9.30693C64.3825 8.46027 62.911 8.46027 62.0034 9.30693L54.351 16.4458L51.3463 13.6429C50.4389 12.7962 48.9674 12.7962 48.0598 13.6429C47.1523 14.4895 47.1523 15.8621 48.0598 16.7088L52.7076 21.0448C53.6151 21.8914 55.0866 21.8916 55.9941 21.0448L65.2898 12.3729C66.1975 11.5262 66.1975 10.1535 65.2899 9.30693V9.30693Z" fill="#00CEF2"/>
</svg>
