<svg width="81" height="70" viewBox="0 0 81 70" fill="none" xmlns="http://www.w3.org/2000/svg">
<path d="M40.4284 13.0359C36.5759 13.0359 33.4417 10.1119 33.4417 6.51793C33.4417 2.92394 36.5759 0 40.4284 0C44.2809 0 47.4152 2.92394 47.4152 6.51793C47.4152 10.1119 44.2809 13.0359 40.4284 13.0359Z" fill="#4FDAE1"/>
<path d="M73.0913 65.8299C71.9067 65.8299 70.7073 65.5491 69.6097 64.9579C66.2733 63.1608 65.1261 59.1668 67.0524 56.0543C68.9786 52.9417 73.2599 51.8718 76.5965 53.6684C79.9327 55.4655 81.08 59.4597 79.1538 62.5722C77.8612 64.6607 75.5076 65.8299 73.0913 65.8299Z" fill="#16AAC8"/>
<path d="M46.0742 69.8565L44.7161 56.7889L46.4128 56.2136C47.7125 55.7729 48.9526 55.175 50.091 54.4453L43.3893 50.8358L50.376 39.5465L57.0778 43.156C57.186 41.8715 57.1209 40.5707 56.8803 39.3002L56.5662 37.6421L63.5368 34.6824L63.5363 34.6835L69.3759 32.2053L70.0828 34.69C72.1524 41.9645 71.076 49.5518 67.0518 56.0542C63.0275 62.5567 56.5224 67.22 48.7345 69.1851L46.0742 69.8565Z" fill="#16AAC8"/>
<path d="M7.76635 65.8298C5.34986 65.8298 2.99656 64.6609 1.70401 62.5722C0.770885 61.0645 0.522933 59.308 1.00595 57.6264C1.48897 55.9447 2.64505 54.5392 4.26116 53.6685C7.59758 51.8716 11.8791 52.9419 13.8052 56.0544C15.7316 59.1669 14.5843 63.161 11.2479 64.958C10.1505 65.549 8.95084 65.8298 7.76635 65.8298Z" fill="#4FDAE1"/>
<path d="M34.7824 69.8565L32.1222 69.1851C24.3343 67.22 17.8291 62.5567 13.8049 56.0542C9.7807 49.5518 8.70427 41.9646 10.7739 34.69L11.4808 32.2053L24.2907 37.6418L23.9764 39.3002C23.7358 40.5707 23.6707 41.8715 23.7789 43.1561L30.4806 39.5465L37.4674 50.8358L30.7657 54.4453C31.9041 55.175 33.1441 55.7729 34.4438 56.2136L36.1408 56.789L34.7824 69.8565Z" fill="#4FDAE1"/>
<path d="M47.345 34.7623H33.3715V27.5536C32.1702 28.099 31.0298 28.7931 29.9607 29.6307L28.5782 30.7137L17.1265 23.0828L19.0798 21.2692C24.7981 15.9598 32.3797 13.0359 40.4281 13.0359C48.4765 13.0359 56.0581 15.9598 61.7764 21.2692L63.7297 23.0828L52.278 30.7137L50.8955 29.6307C49.831 28.7968 48.632 28.0884 47.3452 27.5279V34.7623H47.345Z" fill="#4FDAE1"/>
<path d="M47.3449 34.7623V27.5279C48.6317 28.0884 49.8308 28.7967 50.8953 29.6307L52.2777 30.7137L63.7295 23.0828L61.7762 21.2692C56.0579 15.9598 48.4763 13.0359 40.4279 13.0359V34.7623H47.3449V34.7623Z" fill="#16AAC8"/>
<path d="M47.4145 6.51793C47.4145 2.92394 44.2802 0 40.4277 0V13.0359C44.2802 13.0359 47.4145 10.1119 47.4145 6.51793Z" fill="#16AAC8"/>
</svg>
