<svg width="81" height="73" viewBox="0 0 81 73" fill="none" xmlns="http://www.w3.org/2000/svg">
<path fill-rule="evenodd" clip-rule="evenodd" d="M51.8501 1.71223L50.9805 5.86794L57.3022 10.1526L65.2795 8.45389L66.1447 4.29818C66.2325 3.8802 65.9338 3.46626 65.4859 3.38836L52.8249 1.09739C52.3772 1.01559 51.938 1.29425 51.8501 1.71223V1.71223Z" fill="#C7C5CA"/>
<path fill-rule="evenodd" clip-rule="evenodd" d="M46.1135 5.02895C43.2108 4.43478 40.2773 5.45517 39.3506 8.13536C39.8644 8.56563 40.51 40.1051 40.51 40.1051L72.7212 34.0476L75.1409 14.8439C75.5141 11.9096 73.1471 9.84415 70.1391 9.37298C69.3706 9.21732 67.412 8.84848 65.2777 8.45506C62.3267 7.90584 59.0419 7.31167 58.1328 7.15601C57.2282 6.98388 53.9389 6.38971 50.9792 5.86925C48.8449 5.49203 46.8863 5.1518 46.1135 5.02895V5.02895Z" fill="#ECEAED"/>
<path fill-rule="evenodd" clip-rule="evenodd" d="M40.5111 9.88099C40.5111 9.1884 40.1861 8.56547 39.6767 8.1352C39.2288 7.75812 38.6359 7.52875 37.9948 7.52875H36.1856H34.3763C32.993 7.52875 31.86 8.58599 31.86 9.88099V12.2292L36.1856 13.5859L40.5111 12.2292V9.88099Z" fill="#C7C5CA"/>
<path fill-rule="evenodd" clip-rule="evenodd" d="M40.5758 71.3241L44.8839 54.8481L40.5758 34.0476L5.51453 44.8749V70.6397C5.51453 71.0126 5.8439 71.3241 6.24795 71.3241H40.5758Z" fill="#4FDAE1"/>
<path fill-rule="evenodd" clip-rule="evenodd" d="M44.3797 34.0476V16.1184V13.7824C44.3797 12.9259 43.6287 12.2293 42.7153 12.2293H40.1858H31.539H29.655C28.7416 12.2293 27.9907 12.9259 27.9907 13.7824V34.0476H38.9561H40.5765H44.3797Z" fill="#FFE07D"/>
<path fill-rule="evenodd" clip-rule="evenodd" d="M44.3791 13.7824C44.3791 12.9259 43.6282 12.2293 42.7147 12.2293H40.5102H40.1852H38.9775C39.891 12.2293 40.6419 12.9259 40.6419 13.7824V28.4742V34.0476H44.3791V13.7824Z" fill="#FFD064"/>
<path fill-rule="evenodd" clip-rule="evenodd" d="M30.4235 39.8834C35.803 37.4039 39.3161 30.8347 36.3299 25.1876L34.1693 21.1018C26.7126 23.3886 24.9121 20.7247 21.2057 22.4459C17.4906 24.1426 18.6542 27.0973 12.1725 31.2282L14.3332 35.314C17.3194 40.9611 25.0439 42.3586 30.4235 39.8834Z" fill="#CCF49E"/>
<path fill-rule="evenodd" clip-rule="evenodd" d="M34.1693 21.1017C26.7126 23.3885 24.9121 20.7246 21.2057 22.4458C17.4906 24.1425 18.6542 27.0971 12.1725 31.2281L14.3332 35.3139C14.5967 35.8098 14.8909 36.2688 15.2203 36.6991C21.8163 32.4944 20.6305 29.1135 24.4117 27.3882C28.184 25.6384 29.2773 28.7201 36.8658 26.3964C36.7209 25.9907 36.5408 25.585 36.3301 25.1874L34.1693 21.1017Z" fill="#ECEAED"/>
<path fill-rule="evenodd" clip-rule="evenodd" d="M36.3304 25.1876L34.1698 21.1018C32.5186 21.6059 31.1441 21.8723 29.9672 21.9952L32.1278 26.0809C32.3342 26.4703 32.5056 26.8637 32.6504 27.2571C33.8009 27.1629 35.1711 26.9128 36.8661 26.3966C36.7211 25.9907 36.5411 25.585 36.3304 25.1876V25.1876Z" fill="#DAD8DB"/>
<path fill-rule="evenodd" clip-rule="evenodd" d="M36.6984 33.2731C37.5504 31.1051 37.7084 28.7037 36.8653 26.3964C35.1702 26.9128 33.8 27.1627 32.6495 27.257C32.6539 27.2692 32.6584 27.2775 32.6627 27.2856C33.4883 29.5518 33.3521 31.9083 32.5442 34.0475H36.3647C36.4876 33.7935 36.5974 33.5354 36.6984 33.2731V33.2731Z" fill="#B3E59E"/>
<path fill-rule="evenodd" clip-rule="evenodd" d="M27.9902 34.0476H18.5838H13.6653H8.43514C8.38246 34.0476 8.32979 34.0517 8.27711 34.0599C7.91706 34.1255 7.52184 34.3959 7.34616 34.7197L5.51491 38.076L2.16414 44.2028C1.96646 44.5716 2.12464 44.8749 2.51986 44.8749H5.51476H33.945C34.3402 44.8749 34.8276 44.5716 35.0297 44.2028L38.3759 38.0761L39.9393 35.2115L40.5761 34.0476H38.9557H36.3647H27.9902Z" fill="#FFDECF"/>
<path fill-rule="evenodd" clip-rule="evenodd" d="M75.6372 44.8749L40.5759 34.0476V71.3241H74.9039C75.3079 71.3241 75.6373 71.0126 75.6373 70.6397V44.8749H75.6372Z" fill="#4FDAE1"/>
<path fill-rule="evenodd" clip-rule="evenodd" d="M65.7082 34.0476H44.3789H40.5759L46.1223 44.2028C46.3243 44.5716 46.8162 44.8749 47.2114 44.8749H75.6373H78.6322C79.0274 44.8749 79.19 44.5716 78.9879 44.2028L73.8061 34.7198C73.6041 34.3469 73.1167 34.0478 72.7214 34.0478H65.7082V34.0476Z" fill="#FFDECF"/>
<path fill-rule="evenodd" clip-rule="evenodd" d="M66.1443 4.29817C66.2322 3.88019 65.9335 3.46625 65.4856 3.38835L61.5156 2.66699C61.8888 2.79808 62.1172 3.16693 62.0381 3.54401L61.1774 7.69971C62.429 7.92923 63.8914 8.1956 65.2791 8.45373L66.1443 4.29817Z" fill="#B6B1B7"/>
<path fill-rule="evenodd" clip-rule="evenodd" d="M75.1425 14.843C75.5157 11.9086 73.1488 9.84311 70.1405 9.37179C69.3719 9.21613 67.4134 8.84729 65.2791 8.45373C63.8914 8.19559 62.4289 7.92908 61.1774 7.69971C63.3073 8.09312 65.2704 8.46197 66.0345 8.61777C69.0427 9.09313 71.3615 11.1505 71.041 14.093L68.8757 34.0476H72.7227L75.1425 14.843Z" fill="#DAD8DB"/>
<path fill-rule="evenodd" clip-rule="evenodd" d="M40.5107 12.2293V9.88099C40.5107 9.1884 40.1857 8.56547 39.6763 8.1352C39.5928 8.06958 39.5094 8.00411 39.4216 7.94673C39.0132 7.68441 38.5213 7.52875 37.9944 7.52875H36.1851H35.298C36.6814 7.52875 37.8144 8.58599 37.8144 9.88099V12.2292H38.978H40.1857H40.5107V12.2293Z" fill="#B6B1B7"/>
<path fill-rule="evenodd" clip-rule="evenodd" d="M5.51453 50.6573H35.4905C35.8857 50.6573 36.3908 50.3622 36.5796 49.9852L39.9391 43.1619L40.5758 41.998V34.0476L39.9391 35.2115L38.3757 38.0761L35.0294 44.2028C34.8274 44.5716 34.34 44.8749 33.9448 44.8749H5.51453V50.6573Z" fill="#FCB788"/>
<path fill-rule="evenodd" clip-rule="evenodd" d="M45.6612 50.6573H75.6372V44.8749H47.2114C46.8162 44.8749 46.3243 44.5716 46.1223 44.2028L40.5759 34.0476V41.998L44.5764 49.9852C44.7609 50.3622 45.266 50.6573 45.6612 50.6573Z" fill="#DB9975"/>
<path fill-rule="evenodd" clip-rule="evenodd" d="M35.0302 44.2028L38.3765 38.0761L39.9399 35.2115L40.5766 34.0476H38.9562H36.3652H33.9367L30.8627 39.6702L28.3859 44.2027C28.1838 44.5715 27.6964 44.8747 27.3012 44.8747H33.9454C34.3408 44.8749 34.8282 44.5715 35.0302 44.2028V44.2028Z" fill="#FFCBBE"/>
<path fill-rule="evenodd" clip-rule="evenodd" d="M75.6396 44.8752H78.6347C79.0299 44.8752 79.1924 44.5719 78.9904 44.2031L73.8082 34.7197C73.6062 34.3468 73.1188 34.0476 72.7236 34.0476H68.8766H66.3558C66.751 34.0476 67.2386 34.3468 67.4406 34.7197L67.8841 35.527L72.6227 44.2031C72.8248 44.5719 72.6622 44.8752 72.267 44.8752H75.6396Z" fill="#FFCBBE"/>
<path d="M80.0235 43.711L74.8429 34.23C74.6502 33.8746 74.3416 33.5675 73.9806 33.3443L76.2957 14.9711C76.7158 11.6696 74.2759 8.93314 70.3603 8.30862C69.7142 8.17768 68.294 7.90885 66.6397 7.601L67.2836 4.50817C67.3864 4.01908 67.2769 3.52131 66.9751 3.10651C66.6742 2.693 66.2204 2.41507 65.7059 2.32561L53.0481 0.0350748C52.525 -0.0606049 51.9936 0.0410006 51.5502 0.321102C51.1096 0.599469 50.8109 1.01991 50.709 1.50582L50.0608 4.60385C48.4084 4.31349 46.9881 4.06808 46.3354 3.9643C43.2007 3.33256 40.3013 4.37708 38.8668 6.54346C38.5871 6.47972 38.2953 6.44504 37.9948 6.44504H37.3472V2.6034C37.3472 2.00359 36.8267 1.51941 36.1853 1.51941H31.0248C30.825 1.51941 30.6282 1.56711 30.4547 1.65816L27.9202 2.99074C27.3625 3.28414 27.1642 3.94465 27.4787 4.4664C27.7947 4.98816 28.5028 5.17316 29.062 4.87976L31.3302 3.68738H35.0235V6.44489H34.3759C32.3481 6.44489 30.6981 7.9856 30.6981 9.8817V11.1449H29.6554C28.0968 11.1449 26.8281 12.3286 26.8281 13.7825V20.9422C26.5105 20.9191 26.2022 20.8902 25.9017 20.8613C24.2409 20.7038 22.6716 20.5535 20.6947 21.4727C18.7072 22.3803 17.8783 23.6318 17.0014 24.9586C16.1121 26.3013 15.1175 27.8043 12.6063 29.5994C11.7991 28.1093 10.5132 27.2061 9.06634 27.1179C7.85791 27.0457 6.73329 27.5616 6.05936 28.5025C5.24599 29.64 5.24134 31.1632 6.04387 32.6808C6.23752 33.0479 6.44513 33.4049 6.66822 33.7489C6.52569 33.8948 6.40485 34.0553 6.31189 34.2273L1.12508 43.7182C0.838461 44.253 0.846207 44.821 1.14832 45.2748C1.43183 45.7026 1.94464 45.9584 2.51942 45.9584H4.35361V57.7546C4.35361 58.3545 4.87416 58.8386 5.51556 58.8386C6.15696 58.8386 6.67752 58.3545 6.67752 57.7546V45.9584H33.9454C34.7727 45.9584 35.665 45.428 36.0663 44.6952L39.4141 38.5631V70.2403H6.67752V62.764C6.67752 62.1641 6.15696 61.68 5.51556 61.68C4.87416 61.68 4.35361 62.1641 4.35361 62.764V70.6392C4.35361 71.6148 5.20416 72.4082 6.24837 72.4082H74.9051C75.9493 72.4082 76.7998 71.6148 76.7998 70.6392V45.9583H78.6325C79.2119 45.9583 79.7262 45.701 80.0098 45.2689C80.3102 44.8109 80.3148 44.2429 80.0235 43.711V43.711ZM52.9272 2.22024L64.9407 4.39399L64.3612 7.17795C61.7767 6.70187 54.7986 5.44213 52.3444 5.00623L52.9272 2.22024ZM45.8655 6.08747C45.8834 6.09108 53.6018 7.43421 56.55 7.9697L51.234 28.6472C51.0844 29.2294 51.4689 29.8144 52.0929 29.9541C52.184 29.9744 52.2751 29.9843 52.3648 29.9843C52.8899 29.9843 53.366 29.65 53.4938 29.1528L58.833 8.38522C61.5849 8.88501 69.9288 10.4393 69.9474 10.4422C72.1848 10.7925 74.3019 12.2498 73.9882 14.717L71.6888 32.9642H67.007L68.6647 18.649C68.7264 18.0964 68.316 17.5738 67.7304 17.4683L62.4958 16.5216C61.8645 16.4069 61.2561 16.7919 61.1339 17.3794C61.0118 17.9671 61.4234 18.5359 62.0534 18.6498L66.2384 19.4067L64.6676 32.9642H45.5411V15.6648L48.6819 16.2318C48.7564 16.2453 48.8308 16.2518 48.9039 16.2518C49.4494 16.2518 49.936 15.8917 50.0434 15.3736C50.1653 14.7859 49.7534 14.2172 49.1234 14.1035L45.5166 13.4523C45.3417 12.1539 44.1538 11.1449 42.7155 11.1449H41.6728V9.8817C41.6728 9.05209 41.3569 8.29056 40.8319 7.69624C41.8649 6.09195 44.0218 5.70995 45.8655 6.08747V6.08747ZM33.0218 9.8817C33.0218 9.18217 33.6291 8.61272 34.3759 8.61272H37.9948C38.2698 8.61272 38.5255 8.69033 38.7393 8.82287C38.7479 8.82879 38.7569 8.83414 38.7658 8.83992C39.1176 9.06929 39.3488 9.45056 39.3488 9.8817V11.1449H33.0217V9.8817H33.0218ZM18.9798 26.0961C19.7932 24.8647 20.3308 24.0526 21.7234 23.4166C23.1054 22.7749 24.1247 22.8717 25.6662 23.0177C27.5408 23.1969 29.8398 23.4152 33.5656 22.4107L35.2884 25.6668C35.2946 25.6784 35.2993 25.69 35.3055 25.7015C32.1776 26.4921 30.4486 26.2117 28.9042 25.9588C27.375 25.7087 25.9297 25.4732 23.9002 26.4155C21.8754 27.3419 21.0357 28.6917 20.148 30.1211C19.615 30.9782 19.017 31.9379 18.0642 32.9639H14.3879L13.6536 31.5764C16.7752 29.4288 17.9899 27.5934 18.9798 26.0961V26.0961ZM34.4131 19.2297C33.9746 18.4015 33.9251 17.6456 34.2767 17.1558C34.4952 16.8523 34.8438 16.6919 35.2357 16.715C35.8647 16.754 36.4752 17.2498 36.9136 18.0779C38.3746 20.8398 38.5264 23.5136 38.0074 26.1555C37.8339 25.6641 37.6216 25.1813 37.3722 24.7087L34.4131 19.2297ZM35.5843 32.9641H20.9939C21.4633 32.3267 21.832 31.7341 22.1574 31.2095C22.9863 29.8769 23.5316 28.9983 24.9289 28.3594C26.2814 27.7322 27.1179 27.868 28.5029 28.095C30.1405 28.3623 32.3279 28.7179 36.06 27.7567C36.438 29.4433 36.28 31.2254 35.5843 32.9641ZM7.9927 29.7063C8.20185 29.4129 8.53959 29.2583 8.91606 29.2814C9.52803 29.3175 10.1245 29.8032 10.5505 30.6082L11.7962 32.9639H8.88198C8.61086 32.5722 8.35678 32.1574 8.12903 31.7238C7.70143 30.9175 7.65186 30.1818 7.9927 29.7063V29.7063ZM33.9979 43.7052C33.9808 43.7312 33.9522 43.7843 33.8879 43.7905H3.69362L8.38002 35.2143C8.39706 35.1883 8.42494 35.1348 8.54424 35.1319H38.6812L33.9979 43.7052ZM38.1002 32.9641C39.9144 28.9332 42.1932 23.1609 38.9972 17.1182C38.1839 15.579 36.8687 14.6426 35.3876 14.5515C34.1636 14.4764 33.0266 14.9996 32.345 15.9506C31.5207 17.1025 31.5145 18.6459 32.3279 20.1895L32.4643 20.4453C31.1753 20.7662 30.0971 20.918 29.1521 20.9743V13.7827C29.1521 13.5284 29.3829 13.313 29.6556 13.313H42.7155C42.9882 13.313 43.2175 13.5284 43.2175 13.7827V32.9642H38.1002V32.9641ZM64.0496 43.7861C64.0496 43.7861 64.0496 43.7861 64.0481 43.7861C63.4067 43.7861 62.8877 44.2718 62.8861 44.8701C62.8861 45.4685 63.4067 45.9541 64.0481 45.9541L74.4759 45.9584V70.2403H41.7377V38.5629L45.0887 44.6951C45.4884 45.4279 46.3823 45.9583 47.2127 45.9583L58.6831 45.954C59.3245 45.954 59.845 45.4683 59.845 44.87C59.8435 44.2716 59.3245 43.786 58.6831 43.786C58.6815 43.786 58.6815 43.786 58.6815 43.786L47.2685 43.7903C47.2026 43.7734 47.1724 43.7311 47.1585 43.7108L42.4721 35.1317H72.6664C72.7144 35.1317 72.75 35.1476 72.7717 35.2112L77.4597 43.7903L64.0496 43.7861Z" fill="black"/>
</svg>
