<svg width="81" height="75" viewBox="0 0 81 75" fill="none" xmlns="http://www.w3.org/2000/svg">
<path d="M79.8998 46.1236C78.7359 54.7527 74.7734 62.6874 68.4414 69.0711C68.4366 69.075 68.4323 69.0795 68.4281 69.0841L64.4027 73.0923C63.7926 73.6999 62.967 74.007 62.1403 74.007C61.3807 74.007 60.6199 73.7479 60.0219 73.2256C58.7733 72.1336 58.7092 70.3042 59.8797 69.1388L63.8991 65.1368C69.3426 59.6463 72.7495 52.8223 73.7506 45.402C73.9642 43.8182 75.5136 42.6952 77.2119 42.8945C78.9102 43.0938 80.1134 44.5398 79.8998 46.1236V46.1236ZM67.8513 43.1124L67.867 15.994C67.867 15.9652 67.8664 15.9364 67.8658 15.9076C67.8416 15.1442 68.1327 14.4266 68.6841 13.8863C69.2421 13.3403 70.0102 13.0275 70.8466 13.0043C71.6891 12.9817 72.4838 13.2544 73.0836 13.7728C73.6646 14.2747 74.0011 14.959 74.0338 15.7032L74.0375 31.3642C74.0375 32.9604 75.4253 34.2546 77.1363 34.2546H77.1369C78.8485 34.2546 80.2357 32.9599 80.2351 31.3631L80.2321 15.653C80.2321 15.6253 80.2315 15.5971 80.2303 15.5688C80.1576 13.2482 79.1154 11.1038 77.2961 9.5313C75.4967 7.97632 73.1417 7.15705 70.6657 7.22481C68.1866 7.29256 65.8897 8.24113 64.1981 9.89662C62.5064 11.5521 61.6095 13.7287 61.6688 16.0301L61.6579 35.4685C58.2686 34.3647 54.3436 35.1512 51.7483 37.7677L40.6839 49.0054L29.4289 37.7598C26.8373 35.1467 22.9087 34.3624 19.5175 35.4719L19.5066 16.0301C19.5659 13.7169 18.6236 11.5261 16.8502 9.85653C15.1192 8.22702 12.8072 7.292 10.3397 7.22481C7.85032 7.15649 5.51107 7.98818 3.74801 9.56518C2.0031 11.1258 1.00204 13.2584 0.929409 15.5688C0.928199 15.5971 0.928199 15.6253 0.928199 15.6535L0.923357 40.0555C0.669157 50.9432 4.80233 61.2471 12.5639 69.0711C12.5682 69.0756 12.5724 69.0795 12.5766 69.0841L16.6027 73.0923C17.2128 73.6999 18.0377 74.007 18.8645 74.007C19.624 74.007 20.3854 73.7479 20.9828 73.2256C22.232 72.1342 22.2956 70.3042 21.1256 69.1394L17.1062 65.1373C10.4395 58.4138 6.89344 49.5418 7.1204 40.1526C7.12101 40.1312 7.12161 40.1097 7.12161 40.0883L7.12585 15.7032C7.15914 14.9325 7.48173 14.2358 8.03734 13.7395C8.42953 13.3883 9.11527 12.9744 10.1581 13.0049C11.0157 13.028 11.8503 13.364 12.4477 13.9269C13.0269 14.4718 13.3332 15.1759 13.3102 15.9082C13.309 15.937 13.3084 15.9658 13.3084 15.9946L13.3241 43.2536C13.3072 43.5901 13.3126 43.9277 13.338 44.2637C13.3398 44.288 13.341 44.3128 13.3441 44.3371C13.5014 46.2139 14.3082 48.0563 15.782 49.5418C15.7874 49.5469 15.7923 49.552 15.7971 49.557L26.3888 60.0851C27.5605 61.2493 29.5215 61.3069 30.7695 60.2144C32.0175 59.1218 32.0799 57.2919 30.9081 56.1276L20.3255 45.6092C19.8431 45.1202 19.5786 44.5161 19.5224 43.9001V43.4122C19.5835 42.7166 19.9097 42.0396 20.5004 41.5292C21.7551 40.4468 23.7197 40.5174 24.889 41.6969L40.7275 57.5222C42.0239 58.8299 42.6976 60.5294 42.6243 62.3091C42.5505 64.0883 41.7383 65.7347 40.3365 66.9447L37.9628 68.9943C36.7063 70.0789 36.6306 71.9078 37.7933 73.0799C38.404 73.6954 39.235 74.0076 40.0684 74.0076C40.8213 74.0076 41.5767 73.7529 42.1728 73.238L44.5472 71.1879C49.9477 66.5257 50.2746 58.6334 45.2674 53.5862L44.9261 53.2452L56.3052 41.6879C57.466 40.518 59.4306 40.4468 60.6847 41.5298C61.2282 41.9984 61.5653 42.6195 61.6537 43.297L61.6531 44C61.5762 44.6008 61.3032 45.162 60.8541 45.6148C60.8414 45.6284 60.8281 45.6414 60.8154 45.6549L54.0712 52.7133C52.9328 53.9052 53.0453 55.7329 54.323 56.7955C54.9137 57.2868 55.6503 57.5279 56.3838 57.5279C57.2366 57.5279 58.0864 57.2015 58.6983 56.5607L65.4243 49.5203C67.2037 47.7147 68.0026 45.3879 67.8513 43.1124V43.1124ZM24.9302 21.0994V10.1151C24.9302 7.9001 26.2544 5.91544 28.3861 4.93582L37.8375 0.591586C39.5546 -0.197195 41.6051 -0.197195 43.3222 0.591586L52.7736 4.93582C54.9052 5.91544 56.2301 7.9001 56.2301 10.1151V21.0988C56.2301 23.3132 54.9058 25.2979 52.7742 26.2781L43.3228 30.6229C42.4639 31.0176 41.5222 31.2152 40.5798 31.2152C39.6375 31.2152 38.6957 31.0176 37.8369 30.6229L28.3861 26.2781C26.2544 25.2985 24.9302 23.3138 24.9302 21.0994V21.0994ZM31.1278 21.0994L37.481 24.0156V15.9155L31.1278 13.0828V21.0994ZM50.0343 21.092L50.0325 13.0868L43.6793 15.9161V24.0111L50.0343 21.092ZM34.9366 8.37213L40.5804 10.8887L46.2328 8.37156L40.5835 5.7788L34.9366 8.37213Z" fill="url(#paint0_linear_43_168)"/>
<defs>
<linearGradient id="paint0_linear_43_168" x1="0.912304" y1="37.0033" x2="80.2353" y2="37.0033" gradientUnits="userSpaceOnUse">
<stop stop-color="#00F2FE"/>
<stop offset="0.0208" stop-color="#03EFFE"/>
<stop offset="0.2931" stop-color="#24D2FE"/>
<stop offset="0.5538" stop-color="#3CBDFE"/>
<stop offset="0.7956" stop-color="#4AB0FE"/>
<stop offset="1" stop-color="#4FACFE"/>
</linearGradient>
</defs>
</svg>
